<svg id="Слой_1_копия3_" data-name="Слой 1 копия3 " xmlns="http://www.w3.org/2000/svg" width="682.2451" height="68.0329" viewBox="0 0 682.2451 68.0329">
  <defs>
    <style>
      .cls-1, .cls-2 {
        fill: #f8f9fa;
      }

      .cls-2 {
        stroke: #343a40;
        stroke-miterlimit: 10;
        stroke-width: 2px;
      }
    </style>
  </defs>
  <title>logo-white-ua</title>
  <path class="cls-1" d="M32.0562,3.2176A31.2216,31.2216,0,0,0,15.9279,7.6253L32.1563,34.6724,48.285,7.625A31.8446,31.8446,0,0,0,32.0562,3.2176Z" transform="translate(0 -0.0003)"/>
  <polygon class="cls-1" points="174.806 47.194 153.769 47.194 153.769 63.723 175.007 63.723 174.806 47.194"/>
  <path class="cls-1" d="M51.29,9.6285,32.0562,41.885,12.8225,9.6285A32.4085,32.4085,0,0,0,0,35.2735,32.0562,32.0562,0,1,0,51.29,9.6286Z" transform="translate(0 -0.0003)"/>
  <path class="cls-1" d="M60.9067,56.4105v7.3128h28.25V7.3245h-28.25v6.9121a35.5841,35.5841,0,0,1,6.9121,21.137A35.0575,35.0575,0,0,1,60.9067,56.4105Z" transform="translate(0 -0.0003)"/>
  <path class="cls-1" d="M115.2019,32.3684l-1.703-1.2021,1.4025-1.6028c.1-.1,2.304-2.7047,2.304-8.2144,0-13.8242-14.5255-14.0246-15.1265-14.0246H92.8628V63.7233h9.5167c.8014,0,19.1335-.3,19.1335-18.4323A16.07,16.07,0,0,0,115.2019,32.3684Z" transform="translate(0 -0.0003)"/>
  <path class="cls-1" d="M122.0138,57.4123v6.3111H150.063V7.3245H122.0138V34.2717a20.2271,20.2271,0,0,1,3.2056,11.0193A22.3016,22.3016,0,0,1,122.0138,57.4123Z" transform="translate(0 -0.0003)"/>
  <rect class="cls-1" x="153.7695" y="7.3241" width="17.4305" height="15.8277"/>
  <polygon class="cls-1" points="174.706 26.959 153.769 26.959 153.769 43.488 174.806 43.488 174.706 26.959"/>
  <polygon class="cls-1" points="178.713 63.723 206.562 63.723 206.562 7.324 174.907 7.324 174.907 23.252 178.413 23.252 178.713 63.723"/>
  <polygon class="cls-1" points="210.268 43.488 214.776 43.488 214.776 63.723 242.525 63.723 242.525 7.324 214.776 7.324 214.776 26.959 210.268 26.959 210.268 43.488"/>
  <path class="cls-1" d="M288.255,18.914V17.3211a4.899,4.899,0,0,1,.7964-2.19,2.9589,2.9589,0,0,0,.3982-1.7919,3.3878,3.3878,0,0,1,.1991-1.3936,6.0035,6.0035,0,0,1,4.9774-4.181,9.5963,9.5963,0,0,1,2.3892,0,3.3889,3.3889,0,0,1,1.3937.199,13.5535,13.5535,0,0,1,4.181,1.991,22.7625,22.7625,0,0,1,4.9774,4.7784.7315.7315,0,0,0,.5973.199h5.7738a15.0726,15.0726,0,0,0,2.9865-.199,4.9909,4.9909,0,0,0,3.9819-2.5884c.7964-1.1945,1.3937-2.3891,1.991-3.3846a14.3025,14.3025,0,0,1,2.7871-3.9818.195.195,0,0,1,.1909-.199h-.39a5.5132,5.5132,0,0,1-1.7919-.199c-.5973,0-.5973-.3981-.5973-.7964,0-.199,0-.199.1991-.3981a2.2879,2.2879,0,0,1,1.7919-1.1945h1.3937v-.199l-.5973-.5974c-.1991-.3981-.1991-.5974.1991-.7964.1991-.199.5973-.199.7964-.3981h.5973c.5973.199.9955.199,1.3937.5974.3982.199.5973.5974.9955.9955l.1991.199V.9955c0-.3981.3982-.5974.7964-.5974A2.1117,2.1117,0,0,1,332.6535,2.19v.7964c0,.199,0,.199.1991.199.5973-.199.9955.199.9955.7964a1.811,1.811,0,0,1-.7964,1.5929c-.1991.199-.1991.199,0,.3981a1.929,1.929,0,0,1,1.3937,1.5929v.3981h-.3982a2.5259,2.5259,0,0,1-1.1946-.199h-.3982c0,.199.1991.199.1991.3981a2.7465,2.7465,0,0,1,.5973.7964,1.6057,1.6057,0,0,1-.5973,1.7919,1.4935,1.4935,0,0,1-1.7919,0h-.1991v.199a28.1912,28.1912,0,0,1,.7964,3.9819,18.7481,18.7481,0,0,1-.1991,5.7739,20.14,20.14,0,0,1-4.9774,9.5567A33.9406,33.9406,0,0,1,322.5,34.0456a16.0607,16.0607,0,0,0-3.3846,4.7784,1.7,1.7,0,0,0,0,1.3936,8.3207,8.3207,0,0,1,.7964,1.991c.1991.199.1991.3981.5973.3981h2.19a.7315.7315,0,0,1,.5973.199c.1991.3981.3982.199.7964.3981h1.3937c.1991,0,.3982.199.3982.5974,0,.199-.1991.3981-.5973.3981h-1.991c-.3982,0-.3982,0-.3982.3981a.528.528,0,0,1-.5973.5974h-.3982l-1.7919-.5974a2.9527,2.9527,0,0,0-1.3937-.199c-.1991,0-.1991,0-.1991.199,0,.3981-.1991.5974-.7964.3981-.3982-.199-.9955-.199-1.3937-.3981a4.4813,4.4813,0,0,0-2.7873-.199h-1.1946a.6951.6951,0,0,1-.3982-.199c0-.199,0-.3981.1991-.3981.1991-.199.3982-.199.5973-.3981.3982-.199.5973-.3981.9955-.5974.1991,0,.1991-.199.1991-.3981-.1991-.199-.1991-.5974-.3982-.7964a19.3872,19.3872,0,0,0-2.9865-4.7784L306.97,33.2491l-4.38-4.38a4.1643,4.1643,0,0,1-.7964-1.1945.7315.7315,0,0,0-.5973-.199c-.1991.199-.5973.199-.7964.3981a3.9034,3.9034,0,0,0-2.5883,3.1855,1.197,1.197,0,0,1-.1991.7964v.199a.195.195,0,0,1-.1991-.1908v-.0082c-.1991-.3981-.5973-.7964-.7964-1.1945a5.1426,5.1426,0,0,1,.5973-5.9729l.1991-.199h0c-.1991,0-.3982.199-.5973.3981a5.8318,5.8318,0,0,0-2.5883,3.1855c-.1991.3981-.1991.9955-.3982,1.3936v.199l-.1991-.199a13.3907,13.3907,0,0,1-1.1945-2.3888,6.0754,6.0754,0,0,1,0-4.5793,6.4486,6.4486,0,0,1,3.7828-3.7829,6.1322,6.1322,0,0,1,2.5883-.5974h0a8.838,8.838,0,0,0-4.5792.3981,6.3127,6.3127,0,0,0-3.7828,2.9865,7.0578,7.0578,0,0,0-.5973,2.19v.199l-.1991-.199A20.1507,20.1507,0,0,1,288.255,18.914Zm29.068,23.0952h.7964c.1991,0,.3982,0,.1991-.199-.5973-1.1945-.9955-2.3891-1.5928-3.5838a4.1651,4.1651,0,0,0-.7964-1.1945c-.1991-.199-.1991-.199-.1991,0a5.1221,5.1221,0,0,0-.1991,2.9865,7.0725,7.0725,0,0,0,.7964,1.7919c0,.199.1991.199.3982.199Zm13.14-36.6336c0,.199.1991.199.3982.199a.3981.3981,0,0,0,.0005-.7962h-.0005c-.1987.1992-.3978.3979-.3978.5972Z" transform="translate(0 -0.0003)"/>
  <g>
    <path class="cls-1" d="M276.7073,28.0724c.5973-1.1945,1.1946-1.1945,2.19-.5974a11.3985,11.3985,0,0,1,1.3937.7964,4.4448,4.4448,0,0,1,.5973-2.7874,3.7437,3.7437,0,0,1,3.3846-1.5929,2.986,2.986,0,0,1,2.7873,2.19,3.2344,3.2344,0,0,1-.9955,3.3846,7.721,7.721,0,0,1-2.19,1.1945c-.1991,0-.3982.3981-.5973.199,4.38,4.181.9955,5.5748-2.19.3981q-.2987-.2986-.5973-.5974a6.4643,6.4643,0,0,1-3.5838-1.991m5.7739-.3974.1991.199a5.9554,5.9554,0,0,0,1.5928-.7964.8862.8862,0,0,0,.4019-1.1871L284.87,26.48a1.0952,1.0952,0,0,0-.9955-.5974c-.5973,0-.7964.199-.9955.7964a4.9483,4.9483,0,0,0-.1991,1.5929" transform="translate(0 -0.0003)"/>
    <path class="cls-2" d="M285.2684,34.0453a15.2088,15.2088,0,0,1,1.7919-1.7919,23.2476,23.2476,0,0,1,10.95-5.1765,28.44,28.44,0,0,1,21.9007,4.38,16.1817,16.1817,0,0,1,3.7828,3.5838,22.9853,22.9853,0,0,0,5.9729-3.1855,1.3445,1.3445,0,0,1,1.1946-.7964c.5973,0,.7964.3981.9955.7964a7.1466,7.1466,0,0,1-4.38,9.9548c-.1991,0-.1991,0-.3982.199.3982.9955.5973,2.19.9955,3.1855.3982,1.1945.7964,1.3936,1.991,1.3936a4.3847,4.3847,0,0,1,1.5928.199c.7964.199.9955.9955.7964,1.7919-.1991,1.1945-.5973,2.19-.7964,3.3846A3.76,3.76,0,0,1,329.07,54.552a44.8168,44.8168,0,0,1-4.7783,1.5929c-.3982.199-.5973.199-.5973.7964.1991,2.19.1991,4.38.3982,6.371,0,.9955-.1991,1.7919-.9955,1.991A2.7653,2.7653,0,0,1,319.513,63.91a20.7541,20.7541,0,0,1-2.19-6.7693c0-.199-.1991-.199-.3982-.199h-.7964v.7962a52.1668,52.1668,0,0,0,.1991,5.5748c0,1.1945-.5973,1.991-1.7919,1.991h-.5973a2.4144,2.4144,0,0,1-2.3892-1.3936,30.09,30.09,0,0,1-2.5883-5.7739c-.1991-.3981-.3982-.3981-.7964-.3981h-4.38v2.39c.1991,1.1945.1991,2.3891.3982,3.5838.1991.9955-.3982,1.5929-1.3937,1.7919a3.3389,3.3389,0,0,1-3.5838-1.7919,19.3761,19.3761,0,0,1-2.19-4.5793,8.7542,8.7542,0,0,0-1.1946-2.3891c-1.3937-.3981-1.3937-.3981-1.991.7964a13.8,13.8,0,0,0-1.7919,6.172,1.6262,1.6262,0,0,1-1.6508,1.6012q-.0707-.0011-.1411-.0083a2.9655,2.9655,0,0,1-3.3846-1.991,34.0665,34.0665,0,0,1-2.5883-8.76,56.5854,56.5854,0,0,1-.9955-11.5477,17.2793,17.2793,0,0,1,1.991-8.362c0-.199,1.3937-1.991,0-.3981" transform="translate(0 -0.0003)"/>
  </g>
  <path class="cls-1" d="M265.405,34.8014c.0007,9.33.043,18.66-.0359,27.9892-.0153,1.8135.7156,4.4916-2.4424,4.4578-2.782-.03-2.246-2.46-2.25-4.1576q-.0678-28.7391.0024-57.4784c.0042-1.6867-.5779-4.1221,2.1995-4.2035,3.1807-.0932,2.4759,2.5866,2.49,4.4036C265.445,15.4749,265.4043,25.1383,265.405,34.8014Z" transform="translate(0 -0.0003)"/>
  <g>
    <path class="cls-1" d="M356.6279,26.9878h-4.3242V2.9937H362.13q4.2012,0,6.2314,2.1182a6.9871,6.9871,0,0,1,2.03,5.001,6.9291,6.9291,0,0,1-2.1973,5.3262,7.871,7.871,0,0,1-5.5723,2.0391h-5.9941Zm0-13.2188h5.1152a4.3233,4.3233,0,0,0,3.0586-.9844,3.4124,3.4124,0,0,0,1.0547-2.6191,3.5971,3.5971,0,0,0-.9756-2.5312Q363.9053,6.58,361.3564,6.58h-4.7285Z" transform="translate(0 -0.0003)"/>
    <path class="cls-1" d="M378.1963,26.9878h-4.3242V2.9937h4.3242Z" transform="translate(0 -0.0003)"/>
    <path class="cls-1" d="M383.7158,26.9878V2.9937H388.04V23.2612h7.4355V2.9937H399.8V23.2612h7.4355V2.9937H411.56V26.9878Z" transform="translate(0 -0.0003)"/>
    <path class="cls-1" d="M432.6533,26.9878H417.0615V2.9937h15.4336V6.562H421.3857v6.5039h8.93v3.48h-8.93v6.7148h11.2676Z" transform="translate(0 -0.0003)"/>
    <path class="cls-1" d="M454.1865,26.9878h-4.3242V16.564h-9.1582V26.9878H436.38V2.9937h4.3242V12.855h9.1582V2.9937h4.3242Z" transform="translate(0 -0.0003)"/>
    <path class="cls-1" d="M477.2666,26.9878h-4.3242V16.564h-9.1582V26.9878H459.46V2.9937h4.3242V12.855h9.1582V2.9937h4.3242Z" transform="translate(0 -0.0003)"/>
    <path class="cls-1" d="M495.6182,17.021h-6.0469l-4.3945,9.9668H480.835L485.8975,16.23a6.124,6.124,0,0,1-4.3945-6.1348,6.5473,6.5473,0,0,1,2.1709-5.2119,8.4834,8.4834,0,0,1,5.7744-1.89h10.4941V26.9878h-4.3242Zm0-10.5293h-5.4668a4.6055,4.6055,0,0,0-3.1025.9229,3.1255,3.1255,0,0,0-1.0635,2.4873,3.5917,3.5917,0,0,0,1.09,2.6367,4.6552,4.6552,0,0,0,3.41,1.09h5.1328Z" transform="translate(0 -0.0003)"/>
    <path class="cls-1" d="M351.2842,59.2617l6.3281-20.2676h6.4512l5.6953,20.2676h1.7578v8.7715h-3.0059l-.5273-5.0449H353.06l-.5273,5.0449h-3.0059V59.2617Zm3.6914,0h10.2129L361.0225,43.02h-1.3008Z" transform="translate(0 -0.0003)"/>
    <path class="cls-1" d="M374.5752,62.9883h-3.7617l7.6113-23.9941h5.4844l7.5762,23.9941h-4.6406L380.78,43.02h-.2461Z" transform="translate(0 -0.0003)"/>
    <path class="cls-1" d="M406.708,53.0215h-6.0469l-4.3945,9.9668h-4.3418L396.9873,52.23a6.124,6.124,0,0,1-4.3945-6.1348,6.5494,6.5494,0,0,1,2.1709-5.2129,8.4829,8.4829,0,0,1,5.7744-1.8887h10.4941V62.9883H406.708Zm0-10.5293h-5.4668a4.6054,4.6054,0,0,0-3.1025.9219,3.1275,3.1275,0,0,0-1.0635,2.4883,3.5917,3.5917,0,0,0,1.09,2.6367,4.6552,4.6552,0,0,0,3.41,1.09h5.1328Z" transform="translate(0 -0.0003)"/>
    <path class="cls-1" d="M433.708,62.9883h-4.6406V42.7031h-6.3809v-3.709h17.4023v3.709H433.708Z" transform="translate(0 -0.0003)"/>
    <path class="cls-1" d="M442.7256,62.9883V38.9941h9.3516a13.3323,13.3323,0,0,1,3.9375.4922,5.339,5.339,0,0,1,2.707,2.0566,6.061,6.061,0,0,1,1.1426,3.6738,5.4022,5.4022,0,0,1-1.16,3.4531,5.212,5.212,0,0,1-3.1992,1.873,6.0216,6.0216,0,0,1,3.832,2.0566,5.9269,5.9269,0,0,1,1.3008,3.832,6.4666,6.4666,0,0,1-1.8193,4.666q-1.8193,1.89-5.5986,1.8906Zm4.0957-13.9219h5.2734a3.2757,3.2757,0,0,0,3.498-3.4277,2.8139,2.8139,0,0,0-1.0723-2.4355,4.15,4.15,0,0,0-2.5137-.7812h-5.1855Zm0,10.3184h5.59a4.02,4.02,0,0,0,2.8037-.9316,3.5222,3.5222,0,0,0-.0176-4.9922,3.917,3.917,0,0,0-2.7686-.9668h-5.6074Z" transform="translate(0 -0.0003)"/>
    <path class="cls-1" d="M483.2432,62.9883H478.62l-1.916-5.7129h-9.2285l-1.8809,5.7129h-3.6914l7.9629-23.9941h5.3262Zm-7.6992-9.1758-3.498-10.7051-3.498,10.7051Z" transform="translate(0 -0.0003)"/>
    <path class="cls-1" d="M490.45,62.9883H486.126V38.9941h9.8262q4.2012,0,6.2314,2.1172a7.3673,7.3673,0,0,1-.167,10.3281,7.871,7.871,0,0,1-5.5723,2.0391H490.45Zm0-13.2187h5.1152a4.3233,4.3233,0,0,0,3.0586-.9844,3.4124,3.4124,0,0,0,1.0547-2.6191,3.5971,3.5971,0,0,0-.9756-2.5312q-.9756-1.0547-3.5244-1.0547H490.45Z" transform="translate(0 -0.0003)"/>
    <path class="cls-1" d="M512.0186,60.8086v2.18h-4.3242V38.9941h4.3242V52.459q0,1.6348-.123,3.6211a31.4,31.4,0,0,1,2.83-4.7812L521.792,41.42V38.9941h4.3066V62.9883H521.792V50.5605q0-3.2344.1055-4.3945A36.2956,36.2956,0,0,1,519.05,50.93Z" transform="translate(0 -0.0003)"/>
    <path class="cls-1" d="M549.1963,62.9883h-4.3242V52.5645h-9.1582V62.9883H531.39V38.9941h4.3242v9.8613h9.1582V38.9941h4.3242Z" transform="translate(0 -0.0003)"/>
    <path class="cls-1" d="M572.2764,62.9883h-4.3242V52.5645h-9.1582V62.9883H554.47V38.9941h4.3242v9.8613h9.1582V38.9941h4.3242Z" transform="translate(0 -0.0003)"/>
    <path class="cls-1" d="M581.874,60.8086v2.18H577.55V38.9941h4.3242V52.459q0,1.6348-.123,3.6211a31.4,31.4,0,0,1,2.83-4.7812l7.0664-9.8789V38.9941h4.3066V62.9883h-4.3066V50.5605q0-3.2344.1055-4.3945a36.2956,36.2956,0,0,1-2.8477,4.7637Z" transform="translate(0 -0.0003)"/>
    <path class="cls-1" d="M601.4912,62.9883V38.9941h4.3242V59.2617h8.543V38.9941h4.3066V59.2617h3.0234v8.7715H618.7l-.5273-5.0449Z" transform="translate(0 -0.0003)"/>
    <path class="cls-1" d="M632.71,62.9883h-4.6406V42.7031h-6.3809v-3.709h17.4023v3.709H632.71Z" transform="translate(0 -0.0003)"/>
    <path class="cls-1" d="M641.7275,62.9883V38.9941h9.3516a13.3323,13.3323,0,0,1,3.9375.4922,5.339,5.339,0,0,1,2.707,2.0566,6.061,6.061,0,0,1,1.1426,3.6738,5.4022,5.4022,0,0,1-1.16,3.4531,5.212,5.212,0,0,1-3.1992,1.873,6.0216,6.0216,0,0,1,3.832,2.0566,5.9269,5.9269,0,0,1,1.3008,3.832,6.4666,6.4666,0,0,1-1.8193,4.666q-1.8193,1.89-5.5986,1.8906Zm4.0957-13.9219h5.2734a3.2757,3.2757,0,0,0,3.498-3.4277,2.8139,2.8139,0,0,0-1.0723-2.4355,4.15,4.15,0,0,0-2.5137-.7812h-5.1855Zm0,10.3184h5.59a4.02,4.02,0,0,0,2.8037-.9316,3.5222,3.5222,0,0,0-.0176-4.9922,3.917,3.917,0,0,0-2.7686-.9668h-5.6074Z" transform="translate(0 -0.0003)"/>
    <path class="cls-1" d="M682.2451,62.9883h-4.623l-1.916-5.7129h-9.2285l-1.8809,5.7129h-3.6914l7.9629-23.9941h5.3262Zm-7.6992-9.1758-3.498-10.7051L667.55,53.8125Z" transform="translate(0 -0.0003)"/>
  </g>
</svg>
